<?xml version="1.0" encoding="UTF-8"?>
<svg version="1.1" xmlns="http://www.w3.org/2000/svg" width="1254" height="1254">
<path d="M0 0 C413.82 0 827.64 0 1254 0 C1254 413.82 1254 827.64 1254 1254 C840.18 1254 426.36 1254 0 1254 C0 840.18 0 426.36 0 0 Z " fill="#000000" transform="translate(0,0)"/>
<path d="M0 0 C20.46 0 40.92 0 62 0 C69.24085617 19.97477564 76.42146328 39.96726024 83.5 60 C88.39428422 73.84920041 93.30746205 87.69041152 98.3125 101.5 C105.96880598 122.62848036 113.51045796 143.79781379 121.06132507 164.9641571 C124.0694634 173.39549659 127.08230184 181.82514507 130.09765625 190.25390625 C137.96138142 212.23820981 145.81143123 234.22733336 153.59661865 256.23959351 C154.34677096 258.36014233 155.0975895 260.48045563 155.84918213 262.60049438 C160.12993021 274.67965942 164.30769972 286.78586265 168.31195068 298.95983887 C168.62054016 299.89541626 168.92912964 300.83099365 169.24707031 301.79492188 C169.51400696 302.60892456 169.7809436 303.42292725 170.05596924 304.26159668 C171.2987673 307.86665118 172.66107442 311.42953179 174 315 C174.33 211.05 174.66 107.1 175 0 C198.43 0 221.86 0 246 0 C246 208.23 246 416.46 246 631 C234.78 631 223.56 631 212 631 C210.0765662 625.68484269 208.15509581 620.36905126 206.23828125 615.05151367 C205.58768244 613.24838422 204.9360176 611.445639 204.28320312 609.64331055 C200.94155866 600.41534909 197.69007989 591.21071964 194.88769531 581.8034668 C193.76581576 578.2604132 192.38825208 574.85809291 190.96875 571.42578125 C188.93331605 566.32898897 187.33295328 561.07492864 185.64453125 555.85546875 C183.92829111 550.61355883 182.03609596 545.49367696 179.95556641 540.38574219 C178.50114563 536.75452097 177.21465757 533.07157293 175.9375 529.375 C175.65003906 528.55016113 175.36257813 527.72532227 175.06640625 526.87548828 C173.13875984 521.3305178 171.24014651 515.77579714 169.34765625 510.21875 C168.39936725 507.437182 167.45008749 504.6559542 166.5 501.875 C166.26255066 501.17981262 166.02510132 500.48462524 165.78045654 499.76837158 C162.79708898 491.0490294 159.75198106 482.36780434 156.28125 473.82763672 C154.37722227 469.12364151 152.76418162 464.35185597 151.17700195 459.53222656 C148.7205405 452.16029454 146.12713075 444.83484395 143.5625 437.5 C142.9141938 435.64446086 142.26592008 433.78891038 141.61767578 431.93334961 C140.19404095 427.85886794 138.7697467 423.78461734 137.34521484 419.71044922 C135.49458611 414.4166716 133.64662224 409.12196824 131.79956818 403.82694244 C118.75427089 366.41305955 118.75427089 366.41305955 105.38916016 329.11254883 C99.8185378 313.77918958 94.41842502 298.38832706 89 283 C83.39 267.16 77.78 251.32 72 235 C71.67 366.01 71.34 497.02 71 632 C47.57 632 24.14 632 0 632 C0 423.44 0 214.88 0 0 Z " fill="#FCFCFC" transform="translate(501,295)"/>
<path d="M0 0 C177.74351145 0 177.74351145 0 206 28 C206.67675781 28.62777344 207.35351562 29.25554687 208.05078125 29.90234375 C220.13611498 41.29096201 228.23090767 57.97202818 232 74 C232.1664332 74.68404813 232.3328664 75.36809626 232.50434303 76.07287312 C234.47443869 85.27845164 234.29648833 94.43907743 234.29052734 103.8034668 C234.29652091 105.69043745 234.30332834 107.57740567 234.31088257 109.46437073 C234.32846625 114.56381783 234.33323474 119.6631977 234.33451414 124.76267219 C234.33594072 127.95643601 234.34021991 131.15018302 234.34550858 134.34394264 C234.36398417 145.50819601 234.37218236 156.67240178 234.37060547 167.83666992 C234.36940501 178.20732387 234.39049514 188.57776939 234.4220928 198.94837064 C234.44833265 207.88211177 234.45896953 216.81578515 234.45769465 225.74956447 C234.45718725 231.07196034 234.46274687 236.39417081 234.48405075 241.71652794 C234.50356333 246.72767548 234.50346947 251.73846324 234.48901749 256.74962425 C234.48694429 258.576396 234.4915401 260.40319105 234.5037384 262.22992325 C234.59345827 276.61066641 233.1987914 290.45346029 226.25 303.375 C225.90638428 304.03508057 225.56276855 304.69516113 225.20874023 305.37524414 C222.10934452 311.14558346 218.42540602 316.16609496 214 321 C213.3709375 321.7321875 212.741875 322.464375 212.09375 323.21875 C203.03921711 333.10908592 191.00214398 339.92064528 178.86328125 345.3359375 C177.57701843 345.91104568 177.57701843 345.91104568 176.26477051 346.49777222 C166.05401137 350.97127738 155.55160093 354.55236178 145 358.125 C142.87847817 358.85070596 140.75722632 359.57720159 138.63623047 360.30444336 C134.27845889 361.79690241 129.918805 363.28366789 125.55761719 364.76611328 C120.13088899 366.61205658 114.70994421 368.47428554 109.2913208 370.34387207 C105.20863053 371.75244715 101.12450856 373.15683532 97.04003906 374.5602417 C95.10377519 375.2259743 93.16789924 375.89283628 91.23242188 376.56085205 C88.55491886 377.48391842 85.87544252 378.40100033 83.1953125 379.31640625 C82.40391876 379.59052841 81.61252502 379.86465057 80.79714966 380.14707947 C77.74669068 381.18341448 75.24541418 382 72 382 C72 464.5 72 547 72 632 C48.24 632 24.48 632 0 632 C0 423.44 0 214.88 0 0 Z " fill="#FCFBFC" transform="translate(244,295)"/>
<path d="M0 0 C1.11890625 0.47179687 2.2378125 0.94359375 3.390625 1.4296875 C7.07459957 3.03245566 10.3967244 4.93685771 13.75 7.125 C14.35706787 7.52041992 14.96413574 7.91583984 15.58959961 8.32324219 C42.62052231 26.2231994 61.96753512 52.54318924 68.74609375 84.51953125 C69.31466125 88.01328053 69.66753306 91.47626515 70 95 C70.14469727 96.17570557 70.28939453 97.35141113 70.43847656 98.56274414 C70.83969677 104.11135318 71.04550372 108.31636902 68.04760742 113.14404297 C65.31780639 116.12242493 62.48097867 118.79060019 59.4375 121.4375 C58.43336379 122.35753879 57.43268073 123.28136108 56.43554688 124.20898438 C54.50919474 125.99856682 52.57149971 127.77114869 50.62255859 129.53662109 C47.67665206 132.30372191 45.04155182 135.22337848 42.43774414 138.30883789 C40.57603783 140.49869009 38.56208057 142.49947407 36.5 144.5 C33.71378859 147.2485599 31.04691608 150.02859791 28.5 153 C25.24955349 156.79218759 21.74550431 160.27135531 18.19140625 163.77734375 C16.1852981 165.8120595 14.29886484 167.89585437 12.4375 170.0625 C8.84280646 174.24648757 5.06748338 178.26982012 1 182 C0.67 182 0.34 182 0 182 C0 154.28 0 126.56 0 98 C-0.66 98 -1.32 98 -2 98 C-2.20753906 97.17757812 -2.41507813 96.35515625 -2.62890625 95.5078125 C-6.12358679 82.84507884 -12.3430355 73.07683672 -23.82421875 66.34375 C-36.29180469 59.83059371 -48.28692034 56.3602522 -62.1875 60.625 C-67.90270172 62.77102436 -72.99560073 65.51388458 -78 69 C-79.04800781 69.71736328 -79.04800781 69.71736328 -80.1171875 70.44921875 C-89.99908026 78.08173125 -94.88387891 90.02688575 -97 102 C-97.41169581 107.64282842 -97.40206414 113.26129603 -97.3742218 118.91644287 C-97.37696662 120.60814388 -97.3810223 122.29984318 -97.38626546 123.99153829 C-97.39679895 128.61229268 -97.38875816 133.23285212 -97.37751496 137.85359788 C-97.3686412 142.84745997 -97.37712551 147.84129742 -97.38337708 152.8351593 C-97.3928478 162.60599353 -97.3862808 172.37675372 -97.37411413 182.14758244 C-97.36047141 193.5289339 -97.36213393 204.91026786 -97.36424746 216.29162541 C-97.36743468 236.59758967 -97.35578385 256.90351881 -97.33618164 277.20947266 C-97.31716859 296.91032989 -97.31009705 316.61114597 -97.31567383 336.31201172 C-97.32173144 357.7749668 -97.32155563 379.23790382 -97.310188 400.7008574 C-97.30898072 402.98917278 -97.30777473 405.27748815 -97.30657005 407.56580353 C-97.30596651 408.69165908 -97.30536298 409.81751463 -97.30474115 410.97748701 C-97.30086238 418.9102635 -97.30125542 426.84303326 -97.3031559 434.77581024 C-97.3052778 444.44041954 -97.30005383 454.10499281 -97.28554235 463.76959196 C-97.27829872 468.70018122 -97.27422114 473.63071802 -97.27878571 478.56131172 C-97.2828628 483.0750914 -97.27769466 487.58876274 -97.26515963 492.10252598 C-97.26223251 493.73486696 -97.26266347 495.36721816 -97.26680271 496.99955651 C-97.33780729 508.15529769 -97.33780729 508.15529769 -95 519 C-94.59201172 520.31291016 -94.59201172 520.31291016 -94.17578125 521.65234375 C-89.68391039 533.54259014 -80.90175007 543.49708477 -69.3125 548.875 C-46.3429347 558.60728989 -33.50931454 553.42966115 -1 554 C-1 486.35 -1 418.7 -1 349 C-23.44 349 -45.88 349 -69 349 C-69 326.89 -69 304.78 -69 282 C-23.46 282 22.08 282 69 282 C69 412.35 69 542.7 69 677 C60.24493767 668.24493767 52.1152526 658.93029127 44.03125 649.55859375 C42.91688886 648.26803727 41.80229881 646.97767843 40.6875 645.6875 C39.84904541 644.71683594 39.84904541 644.71683594 38.99365234 643.7265625 C34.72091705 638.79543811 30.35852008 633.96010352 25.92578125 629.171875 C24 627 24 627 22 624 C19.35731272 623.69945867 16.94559923 623.59368235 14.30004883 623.61523438 C13.50455124 623.6098616 12.70905365 623.60448883 11.88945007 623.59895325 C10.15651189 623.58915092 8.42352448 623.58623848 6.69056129 623.58930969 C3.93464003 623.59378637 1.17936165 623.57978494 -1.57649231 623.56091309 C-7.44681734 623.5240508 -13.31707636 623.51044196 -19.1875 623.5 C-25.94895916 623.48786995 -32.71010847 623.46589332 -39.47142982 623.41999817 C-42.16265715 623.4065879 -44.85347682 623.41057316 -47.54472351 623.41540527 C-61.27638493 623.37122049 -73.94843146 621.4794775 -87 617 C-88.47146484 616.51273438 -88.47146484 616.51273438 -89.97265625 616.015625 C-103.05570544 611.37376551 -114.54821117 604.08330584 -125 595 C-126.32064453 593.89591797 -126.32064453 593.89591797 -127.66796875 592.76953125 C-153.42567432 570.49946987 -166.16573064 538.28412527 -169 505 C-169.4431043 496.22798422 -169.28690125 487.44640045 -169.19458008 478.66723633 C-169.1794037 476.0680344 -169.1659397 473.46882202 -169.15401173 470.86960316 C-169.13074101 465.96552932 -169.10237007 461.0615337 -169.06800818 456.157525 C-168.99902892 446.19902133 -168.9769718 436.24079627 -168.97006226 426.28207397 C-168.96916196 425.08270757 -168.96916196 425.08270757 -168.96824347 423.85911154 C-168.96581292 420.56720753 -168.96351437 417.27530349 -168.96148336 413.98339921 C-168.95534011 404.44771943 -168.94022875 394.91205658 -168.92448425 385.37638855 C-168.92303516 384.48546592 -168.92158607 383.59454328 -168.92009307 382.67662299 C-168.87744093 356.56354825 -168.82239106 330.45049541 -168.76428509 304.33745098 C-168.75532203 300.28787433 -168.7464124 296.23829757 -168.73754883 292.1887207 C-168.73534514 291.1828609 -168.73314146 290.17700109 -168.730871 289.14066068 C-168.6951985 272.71347329 -168.67047763 256.28628618 -168.64965298 239.85907402 C-168.62787389 222.86055535 -168.59484778 205.86208564 -168.55129844 188.86360866 C-168.52493862 178.44147233 -168.50712864 168.0193966 -168.50065396 157.59722862 C-168.49538873 150.48427004 -168.47913412 143.37138876 -168.45433434 136.25847169 C-168.44038552 132.16714541 -168.43112435 128.07595731 -168.43499184 123.98460579 C-168.43843225 120.23158871 -168.42786703 116.47886578 -168.40676448 112.72590885 C-168.39910724 110.74758978 -168.40588551 108.76923046 -168.41341704 106.7909109 C-168.15638325 73.94136972 -153.06895323 43.81544824 -130 21 C-97.86187598 -8.71912544 -39.84747961 -25.39365173 0 0 Z " fill="#FCFCFC" transform="translate(943,305)"/>
<path d="M0 0 C8.56297657 -0.06980773 17.12583231 -0.1229663 25.68902397 -0.15543652 C29.666158 -0.17102819 33.64309596 -0.19214604 37.62011719 -0.22631836 C41.4651085 -0.25914583 45.30991236 -0.27690176 49.15503311 -0.28463173 C50.61490958 -0.29013361 52.07477692 -0.30087635 53.5345726 -0.31719017 C65.17338521 -0.44197149 75.70822175 0.13820376 84.58984375 8.49609375 C92.87491459 17.26733011 92.44841803 27.74359396 92.43579102 39.16137695 C92.44478011 40.78854053 92.45499098 42.41569774 92.46632385 44.04284668 C92.49271011 48.44177409 92.49985246 52.84052617 92.50177121 57.23952508 C92.50391021 59.99337771 92.51032725 62.74718639 92.51826286 65.50102806 C92.54597806 75.12400495 92.55827311 84.74685756 92.5559082 94.36987305 C92.55410663 103.31493122 92.58575772 112.2594462 92.63313919 121.20436698 C92.67246803 128.9057596 92.68845564 136.60697539 92.68654197 144.30846757 C92.68578005 148.89870892 92.69416438 153.48846699 92.72607613 158.07860756 C92.75529432 162.39880907 92.75524021 166.71807098 92.73352623 171.03830719 C92.73041022 172.61520715 92.73734876 174.19216744 92.7556076 175.76896477 C92.87289364 186.60757656 91.52916574 195.90349311 83.97550297 204.23222828 C76.52299641 211.35155236 66.25072805 214.65315964 56.875 218.5 C55.60633516 219.02271663 54.33769967 219.5455045 53.0690918 220.06835938 C40.13895643 225.38749476 27.15826051 230.58160223 14.16259766 235.73828125 C12.10157546 236.56052632 10.04376069 237.39087154 7.98974609 238.23046875 C7.08949707 238.59785156 6.18924805 238.96523438 5.26171875 239.34375 C4.09129028 239.82618164 4.09129028 239.82618164 2.8972168 240.31835938 C1 241 1 241 -1 241 C-1.0236839 218.14146747 -1.04114898 195.28293705 -1.05181217 172.42439461 C-1.05690163 161.80343329 -1.06382514 151.18247979 -1.07543945 140.56152344 C-1.12570349 93.69716424 -1.11531519 46.85373319 0 0 Z " fill="#010101" transform="translate(317,367)"/>
<path d="M0 0 C23.43 0 46.86 0 71 0 C71 38.94 71 77.88 71 118 C70.67 118 70.34 118 70 118 C70 79.39 70 40.78 70 1 C48.55 1.33 27.1 1.66 5 2 C4.67 2.66 4.34 3.32 4 4 C3.01 4 2.02 4 1 4 C1 107.29 1 210.58 1 317 C0.01 317 -0.98 317 -2 317 C-1.67 316.34 -1.34 315.68 -1 315 C-0.90097751 313.2803726 -0.86612324 311.55690202 -0.8613348 309.8344326 C-0.85586036 308.7331809 -0.85038591 307.63192919 -0.84474558 306.49730623 C-0.84376747 305.2774832 -0.84278936 304.05766017 -0.84178162 302.8008728 C-0.83437465 300.86883104 -0.83437465 300.86883104 -0.82681805 298.89775813 C-0.81320052 295.31078429 -0.80580817 291.72381996 -0.79939139 288.13682699 C-0.79140327 284.27314732 -0.77770006 280.40948754 -0.76467896 276.54582214 C-0.74289361 269.84782914 -0.72475667 263.14983415 -0.70907402 256.45182419 C-0.6863941 246.76753933 -0.6582487 237.08327648 -0.62875474 227.39901026 C-0.58105576 211.68821706 -0.53779784 195.97741488 -0.49731445 180.26660156 C-0.45797125 165.00194601 -0.41654785 149.73729845 -0.37231445 134.47265625 C-0.36959018 133.53227809 -0.36686591 132.59189993 -0.36405908 131.62302546 C-0.3503798 126.90558419 -0.33665949 122.18814303 -0.32291877 117.47070193 C-0.20891777 78.31381694 -0.10293129 39.15691596 0 0 Z " fill="#DBDADA" transform="translate(676,295)"/>
<path d="M0 0 C22.11 0 44.22 0 67 0 C67 0.33 67 0.66 67 1 C49.51 1 32.02 1 14 1 C14 1.66 14 2.32 14 3 C10.37 3 6.74 3 3 3 C2.67 19.5 2.34 36 2 53 C1.01 53.495 1.01 53.495 0 54 C0 36.18 0 18.36 0 0 Z " fill="#2E2F2F" transform="translate(317,367)"/>
<path d="M0 0 C2.37616467 2.37616467 3.04068181 4.35349521 4.1875 7.5 C4.55230469 8.4796875 4.91710937 9.459375 5.29296875 10.46875 C6 13 6 13 5 15 C4.01 14.67 3.02 14.34 2 14 C1.67 14.66 1.34 15.32 1 16 C1.33 14.35 1.66 12.7 2 11 C1.34 11 0.68 11 0 11 C0 7.37 0 3.74 0 0 Z " fill="#1E1D1E" transform="translate(572,528)"/>
<path d="M0 0 C2.97 0.495 2.97 0.495 6 1 C5.2884375 1.7734375 5.2884375 1.7734375 4.5625 2.5625 C2.57190593 5.66782675 2.34939182 8.36632504 2 12 C1.67 12 1.34 12 1 12 C0.67 8.04 0.34 4.08 0 0 Z " fill="#F7F7F7" transform="translate(501,296)"/>
<path d="M0 0 C2.1640625 -0.29296875 2.1640625 -0.29296875 4.625 -0.1875 C5.44226563 -0.16042969 6.25953125 -0.13335938 7.1015625 -0.10546875 C8.04128906 -0.05326172 8.04128906 -0.05326172 9 0 C8.67 0.99 8.34 1.98 8 3 C4.7 3 1.4 3 -2 3 C-1.34 2.01 -0.68 1.02 0 0 Z " fill="#DADBDB" transform="translate(883,925)"/>
<path d="M0 0 C0.1953125 6.0546875 0.1953125 6.0546875 0 8 C-0.66 8.66 -1.32 9.32 -2 10 C-3.1875 7.25 -3.1875 7.25 -4 4 C-1.78947368 0 -1.78947368 0 0 0 Z " fill="#282828" transform="translate(674,593)"/>
<path d="M0 0 C0.66 0.33 1.32 0.66 2 1 C2.6328125 3.28515625 2.6328125 3.28515625 3.125 6.0625 C3.29257812 6.98160156 3.46015625 7.90070312 3.6328125 8.84765625 C3.75398437 9.55792969 3.87515625 10.26820313 4 11 C3.34 11 2.68 11 2 11 C1.01 7.7 0.02 4.4 -1 1 C-0.67 0.67 -0.34 0.34 0 0 Z " fill="#EFEFF0" transform="translate(583,553)"/>
<path d="M0 0 C0.66 0.33 1.32 0.66 2 1 C0.02 3.97 -1.96 6.94 -4 10 C-4.66 9.34 -5.32 8.68 -6 8 C-4.02 5.36 -2.04 2.72 0 0 Z " fill="#E7E6E7" transform="translate(802,338)"/>
</svg>
